# Wavefront OBJ file
# Exported by Maverick Model 3D 1.3.14
# Tue Feb 20 18:47:47 2024

mtllib shot.mtl

# 42 Vertices
v 0.0 1.005321 0.0
v 0.0 -1.005321 0.0
v 0.0 0.502661 0.870634
v 0.516829 -0.502661 0.704357
v 0.836247 0.502661 0.269041
v 0.836247 -0.502661 -0.269041
v 0.516829 0.502661 -0.704357
v 0.0 -0.502661 -0.870634
v -0.516829 0.502661 -0.704357
v -0.836247 -0.502661 -0.269041
v -0.836247 0.502661 0.269041
v -0.516829 -0.502661 0.704357
v -0.482808 0.870634 0.155331
v -0.48577 0.583983 0.662028
v 0.0 0.870634 0.502661
v 0.298391 -0.870634 0.406661
v -0.0 -0.583983 0.818312
v -0.298391 -0.870634 0.406661
v 0.48577 0.583983 0.662028
v 0.482808 0.870634 0.155331
v 0.785992 0.583983 -0.252872
v 0.298391 0.870634 -0.406661
v 0.0 0.583983 -0.818312
v -0.298391 0.870634 -0.406661
v -0.785992 0.583983 -0.252872
v -0.785992 -0.583983 0.252872
v -0.482807 -0.870634 -0.155331
v -0.48577 -0.583983 -0.662028
v 0.0 -0.870634 -0.502661
v 0.48577 -0.583983 -0.662028
v 0.482808 -0.870634 -0.155331
v 0.785992 -0.583983 0.252872
v 0.313747 0.0 0.956117
v 0.821401 0.0 0.590913
v 1.015308 0.0 0.0
v 0.821401 0.0 -0.590913
v 0.313747 0.0 -0.956117
v -0.313747 0.0 -0.956117
v -0.821401 0.0 -0.590913
v -1.015308 0.0 -0.0
v -0.821401 0.0 0.590913
v -0.313747 0.0 0.956117

# 240 Texture Coordinates
vt 0.0 1.0
vt 0.0 0.0
vt 1.0 0.0
vt 0.0 1.0
vt 0.0 0.0
vt 1.0 0.0
vt 0.0 1.0
vt 0.0 0.0
vt 1.0 0.0
vt 0.0 1.0
vt 0.0 0.0
vt 1.0 0.0
vt 0.0 1.0
vt 0.0 0.0
vt 1.0 0.0
vt 0.0 1.0
vt 0.0 0.0
vt 1.0 0.0
vt 0.0 1.0
vt 0.0 0.0
vt 1.0 0.0
vt 0.0 1.0
vt 0.0 0.0
vt 1.0 0.0
vt 0.0 1.0
vt 0.0 0.0
vt 1.0 0.0
vt 0.0 1.0
vt 0.0 0.0
vt 1.0 0.0
vt 0.0 1.0
vt 0.0 0.0
vt 1.0 0.0
vt 0.0 1.0
vt 0.0 0.0
vt 1.0 0.0
vt 0.0 1.0
vt 0.0 0.0
vt 1.0 0.0
vt 0.0 1.0
vt 0.0 0.0
vt 1.0 0.0
vt 0.0 1.0
vt 0.0 0.0
vt 1.0 0.0
vt 0.0 1.0
vt 0.0 0.0
vt 1.0 0.0
vt 0.0 1.0
vt 0.0 0.0
vt 1.0 0.0
vt 0.0 1.0
vt 0.0 0.0
vt 1.0 0.0
vt 0.0 1.0
vt 0.0 0.0
vt 1.0 0.0
vt 0.0 1.0
vt 0.0 0.0
vt 1.0 0.0
vt 0.0 1.0
vt 0.0 0.0
vt 1.0 0.0
vt 0.0 1.0
vt 0.0 0.0
vt 1.0 0.0
vt 0.0 1.0
vt 0.0 0.0
vt 1.0 0.0
vt 0.0 1.0
vt 0.0 0.0
vt 1.0 0.0
vt 0.0 1.0
vt 0.0 0.0
vt 1.0 0.0
vt 0.0 1.0
vt 0.0 0.0
vt 1.0 0.0
vt 0.0 1.0
vt 0.0 0.0
vt 1.0 0.0
vt 0.0 1.0
vt 0.0 0.0
vt 1.0 0.0
vt 0.0 1.0
vt 0.0 0.0
vt 1.0 0.0
vt 0.0 1.0
vt 0.0 0.0
vt 1.0 0.0
vt 0.0 1.0
vt 0.0 0.0
vt 1.0 0.0
vt 0.0 1.0
vt 0.0 0.0
vt 1.0 0.0
vt 0.0 1.0
vt 0.0 0.0
vt 1.0 0.0
vt 0.0 1.0
vt 0.0 0.0
vt 1.0 0.0
vt 0.0 1.0
vt 0.0 0.0
vt 1.0 0.0
vt 0.0 1.0
vt 0.0 0.0
vt 1.0 0.0
vt 0.0 1.0
vt 0.0 0.0
vt 1.0 0.0
vt 0.0 1.0
vt 0.0 0.0
vt 1.0 0.0
vt 0.0 1.0
vt 0.0 0.0
vt 1.0 0.0
vt 0.0 1.0
vt 0.0 0.0
vt 1.0 0.0
vt 0.0 1.0
vt 0.0 0.0
vt 1.0 0.0
vt 0.0 1.0
vt 0.0 0.0
vt 1.0 0.0
vt 0.0 1.0
vt 0.0 0.0
vt 1.0 0.0
vt 0.0 1.0
vt 0.0 0.0
vt 1.0 0.0
vt 0.0 1.0
vt 0.0 0.0
vt 1.0 0.0
vt 0.0 1.0
vt 0.0 0.0
vt 1.0 0.0
vt 0.0 1.0
vt 0.0 0.0
vt 1.0 0.0
vt 0.0 1.0
vt 0.0 0.0
vt 1.0 0.0
vt 0.0 1.0
vt 0.0 0.0
vt 1.0 0.0
vt 0.0 1.0
vt 0.0 0.0
vt 1.0 0.0
vt 0.0 1.0
vt 0.0 0.0
vt 1.0 0.0
vt 0.0 1.0
vt 0.0 0.0
vt 1.0 0.0
vt 0.0 1.0
vt 0.0 0.0
vt 1.0 0.0
vt 0.0 1.0
vt 0.0 0.0
vt 1.0 0.0
vt 0.0 1.0
vt 0.0 0.0
vt 1.0 0.0
vt 0.0 1.0
vt 0.0 0.0
vt 1.0 0.0
vt 0.0 1.0
vt 0.0 0.0
vt 1.0 0.0
vt 0.0 1.0
vt 0.0 0.0
vt 1.0 0.0
vt 0.0 1.0
vt 0.0 0.0
vt 1.0 0.0
vt 0.0 1.0
vt 0.0 0.0
vt 1.0 0.0
vt 0.0 1.0
vt 0.0 0.0
vt 1.0 0.0
vt 0.0 1.0
vt 0.0 0.0
vt 1.0 0.0
vt 0.0 1.0
vt 0.0 0.0
vt 1.0 0.0
vt 0.0 1.0
vt 0.0 0.0
vt 1.0 0.0
vt 0.0 1.0
vt 0.0 0.0
vt 1.0 0.0
vt 0.0 1.0
vt 0.0 0.0
vt 1.0 0.0
vt 0.0 1.0
vt 0.0 0.0
vt 1.0 0.0
vt 0.0 1.0
vt 0.0 0.0
vt 1.0 0.0
vt 0.0 1.0
vt 0.0 0.0
vt 1.0 0.0
vt 0.0 1.0
vt 0.0 0.0
vt 1.0 0.0
vt 0.0 1.0
vt 0.0 0.0
vt 1.0 0.0
vt 0.0 1.0
vt 0.0 0.0
vt 1.0 0.0
vt 0.0 1.0
vt 0.0 0.0
vt 1.0 0.0
vt 0.0 1.0
vt 0.0 0.0
vt 1.0 0.0
vt 0.0 1.0
vt 0.0 0.0
vt 1.0 0.0
vt 0.0 1.0
vt 0.0 0.0
vt 1.0 0.0
vt 0.0 1.0
vt 0.0 0.0
vt 1.0 0.0
vt 0.0 1.0
vt 0.0 0.0
vt 1.0 0.0
vt 0.0 1.0
vt 0.0 0.0
vt 1.0 0.0
vt 0.0 1.0
vt 0.0 0.0
vt 1.0 0.0

# 240 Vertex Normals
vn 0.0 1.0 -0.0
vn -0.469359 0.869503 0.153838
vn 0.0 0.867765 0.496976
vn -0.0 -1.0 0.0
vn 0.289771 -0.868428 0.402326
vn -0.289771 -0.868428 0.402325
vn 0.0 1.0 -0.0
vn 0.0 0.867765 0.496976
vn 0.469359 0.869503 0.153838
vn 0.0 1.0 -0.0
vn 0.469359 0.869503 0.153838
vn 0.289771 0.868428 -0.402326
vn 0.0 1.0 -0.0
vn 0.289771 0.868428 -0.402326
vn -0.289771 0.868428 -0.402326
vn 0.0 1.0 -0.0
vn -0.289771 0.868428 -0.402326
vn -0.469359 0.869503 0.153838
vn -0.0 -1.0 0.0
vn -0.289771 -0.868428 0.402325
vn -0.469359 -0.869503 -0.153838
vn -0.0 -1.0 0.0
vn -0.469359 -0.869503 -0.153838
vn -0.0 -0.867765 -0.496975
vn -0.0 -1.0 0.0
vn -0.0 -0.867765 -0.496975
vn 0.469359 -0.869503 -0.153838
vn -0.0 -1.0 0.0
vn 0.469359 -0.869503 -0.153838
vn 0.289771 -0.868428 0.402326
vn 0.0 0.478832 0.877907
vn 0.306599 0.000056 0.951839
vn 0.485133 0.557387 0.67377
vn 0.832708 0.481764 0.27295
vn 1.0 0.0 0.0
vn 0.787768 0.55921 -0.258276
vn 0.512696 0.479947 -0.711895
vn 0.306599 -0.000056 -0.951839
vn 0.0 0.556269 -0.831002
vn -0.512696 0.479947 -0.711895
vn -0.806584 0.000093 -0.59112
vn -0.787768 0.55921 -0.258276
vn -0.832708 0.481764 0.27295
vn -0.806584 -0.000093 0.59112
vn -0.485133 0.557387 0.67377
vn 0.832708 -0.481764 -0.27295
vn 1.0 0.0 0.0
vn 0.787768 -0.55921 0.258276
vn 0.0 -0.478832 -0.877907
vn 0.306599 -0.000056 -0.951839
vn 0.485133 -0.557387 -0.67377
vn -0.832707 -0.481764 -0.27295
vn -0.806584 0.000093 -0.59112
vn -0.485133 -0.557387 -0.67377
vn -0.512696 -0.479947 0.711895
vn -0.806584 -0.000093 0.59112
vn -0.787767 -0.55921 0.258276
vn 0.512696 -0.479947 0.711895
vn 0.306599 0.000056 0.951839
vn 0.0 -0.556269 0.831002
vn -0.832708 0.481764 0.27295
vn -0.485133 0.557387 0.67377
vn -0.469359 0.869503 0.153838
vn 0.0 0.478832 0.877907
vn 0.0 0.867765 0.496976
vn -0.485133 0.557387 0.67377
vn -0.469359 0.869503 0.153838
vn -0.485133 0.557387 0.67377
vn 0.0 0.867765 0.496976
vn 0.512696 -0.479947 0.711895
vn 0.0 -0.556269 0.831002
vn 0.289771 -0.868428 0.402326
vn -0.512696 -0.479947 0.711895
vn -0.289771 -0.868428 0.402325
vn 0.0 -0.556269 0.831002
vn 0.289771 -0.868428 0.402326
vn 0.0 -0.556269 0.831002
vn -0.289771 -0.868428 0.402325
vn 0.0 0.478832 0.877907
vn 0.485133 0.557387 0.67377
vn 0.0 0.867765 0.496976
vn 0.832708 0.481764 0.27295
vn 0.469359 0.869503 0.153838
vn 0.485133 0.557387 0.67377
vn 0.0 0.867765 0.496976
vn 0.485133 0.557387 0.67377
vn 0.469359 0.869503 0.153838
vn 0.832708 0.481764 0.27295
vn 0.787768 0.55921 -0.258276
vn 0.469359 0.869503 0.153838
vn 0.512696 0.479947 -0.711895
vn 0.289771 0.868428 -0.402326
vn 0.787768 0.55921 -0.258276
vn 0.469359 0.869503 0.153838
vn 0.787768 0.55921 -0.258276
vn 0.289771 0.868428 -0.402326
vn 0.512696 0.479947 -0.711895
vn 0.0 0.556269 -0.831002
vn 0.289771 0.868428 -0.402326
vn -0.512696 0.479947 -0.711895
vn -0.289771 0.868428 -0.402326
vn 0.0 0.556269 -0.831002
vn 0.289771 0.868428 -0.402326
vn 0.0 0.556269 -0.831002
vn -0.289771 0.868428 -0.402326
vn -0.512696 0.479947 -0.711895
vn -0.787768 0.55921 -0.258276
vn -0.289771 0.868428 -0.402326
vn -0.832708 0.481764 0.27295
vn -0.469359 0.869503 0.153838
vn -0.787768 0.55921 -0.258276
vn -0.289771 0.868428 -0.402326
vn -0.787768 0.55921 -0.258276
vn -0.469359 0.869503 0.153838
vn -0.512696 -0.479947 0.711895
vn -0.787767 -0.55921 0.258276
vn -0.289771 -0.868428 0.402325
vn -0.832707 -0.481764 -0.27295
vn -0.469359 -0.869503 -0.153838
vn -0.787767 -0.55921 0.258276
vn -0.289771 -0.868428 0.402325
vn -0.787767 -0.55921 0.258276
vn -0.469359 -0.869503 -0.153838
vn -0.832707 -0.481764 -0.27295
vn -0.485133 -0.557387 -0.67377
vn -0.469359 -0.869503 -0.153838
vn 0.0 -0.478832 -0.877907
vn -0.0 -0.867765 -0.496975
vn -0.485133 -0.557387 -0.67377
vn -0.469359 -0.869503 -0.153838
vn -0.485133 -0.557387 -0.67377
vn -0.0 -0.867765 -0.496975
vn 0.0 -0.478832 -0.877907
vn 0.485133 -0.557387 -0.67377
vn -0.0 -0.867765 -0.496975
vn 0.832708 -0.481764 -0.27295
vn 0.469359 -0.869503 -0.153838
vn 0.485133 -0.557387 -0.67377
vn -0.0 -0.867765 -0.496975
vn 0.485133 -0.557387 -0.67377
vn 0.469359 -0.869503 -0.153838
vn 0.832708 -0.481764 -0.27295
vn 0.787768 -0.55921 0.258276
vn 0.469359 -0.869503 -0.153838
vn 0.512696 -0.479947 0.711895
vn 0.289771 -0.868428 0.402326
vn 0.787768 -0.55921 0.258276
vn 0.469359 -0.869503 -0.153838
vn 0.787768 -0.55921 0.258276
vn 0.289771 -0.868428 0.402326
vn 0.512696 -0.479947 0.711895
vn 0.806584 -0.000093 0.59112
vn 0.306599 0.000056 0.951839
vn 0.832708 0.481764 0.27295
vn 0.485133 0.557387 0.67377
vn 0.806584 -0.000093 0.59112
vn 0.306599 0.000056 0.951839
vn 0.806584 -0.000093 0.59112
vn 0.485133 0.557387 0.67377
vn 0.832708 -0.481764 -0.27295
vn 0.806584 0.000093 -0.59112
vn 1.0 0.0 0.0
vn 0.512696 0.479947 -0.711895
vn 0.787768 0.55921 -0.258276
vn 0.806584 0.000093 -0.59112
vn 1.0 0.0 0.0
vn 0.806584 0.000093 -0.59112
vn 0.787768 0.55921 -0.258276
vn 0.0 -0.478832 -0.877907
vn -0.306599 -0.000056 -0.951839
vn 0.306599 -0.000056 -0.951839
vn -0.512696 0.479947 -0.711895
vn 0.0 0.556269 -0.831002
vn -0.306599 -0.000056 -0.951839
vn 0.306599 -0.000056 -0.951839
vn -0.306599 -0.000056 -0.951839
vn 0.0 0.556269 -0.831002
vn -0.832707 -0.481764 -0.27295
vn -1.0 0.0 0.0
vn -0.806584 0.000093 -0.59112
vn -0.832708 0.481764 0.27295
vn -0.787768 0.55921 -0.258276
vn -1.0 0.0 0.0
vn -0.806584 0.000093 -0.59112
vn -1.0 0.0 0.0
vn -0.787768 0.55921 -0.258276
vn -0.512696 -0.479947 0.711895
vn -0.306599 0.000056 0.951839
vn -0.806584 -0.000093 0.59112
vn 0.0 0.478832 0.877907
vn -0.485133 0.557387 0.67377
vn -0.306599 0.000056 0.951839
vn -0.806584 -0.000093 0.59112
vn -0.306599 0.000056 0.951839
vn -0.485133 0.557387 0.67377
vn 0.832708 0.481764 0.27295
vn 0.806584 -0.000093 0.59112
vn 1.0 0.0 0.0
vn 0.512696 -0.479947 0.711895
vn 0.787768 -0.55921 0.258276
vn 0.806584 -0.000093 0.59112
vn 1.0 0.0 0.0
vn 0.806584 -0.000093 0.59112
vn 0.787768 -0.55921 0.258276
vn 0.512696 0.479947 -0.711895
vn 0.806584 0.000093 -0.59112
vn 0.306599 -0.000056 -0.951839
vn 0.832708 -0.481764 -0.27295
vn 0.485133 -0.557387 -0.67377
vn 0.806584 0.000093 -0.59112
vn 0.306599 -0.000056 -0.951839
vn 0.806584 0.000093 -0.59112
vn 0.485133 -0.557387 -0.67377
vn -0.512696 0.479947 -0.711895
vn -0.306599 -0.000056 -0.951839
vn -0.806584 0.000093 -0.59112
vn 0.0 -0.478832 -0.877907
vn -0.485133 -0.557387 -0.67377
vn -0.306599 -0.000056 -0.951839
vn -0.806584 0.000093 -0.59112
vn -0.306599 -0.000056 -0.951839
vn -0.485133 -0.557387 -0.67377
vn -0.832708 0.481764 0.27295
vn -1.0 0.0 0.0
vn -0.806584 -0.000093 0.59112
vn -0.832707 -0.481764 -0.27295
vn -0.787767 -0.55921 0.258276
vn -1.0 0.0 0.0
vn -0.806584 -0.000093 0.59112
vn -1.0 0.0 0.0
vn -0.787767 -0.55921 0.258276
vn 0.0 0.478832 0.877907
vn -0.306599 0.000056 0.951839
vn 0.306599 0.000056 0.951839
vn -0.512696 -0.479947 0.711895
vn 0.0 -0.556269 0.831002
vn -0.306599 0.000056 0.951839
vn 0.306599 0.000056 0.951839
vn -0.306599 0.000056 0.951839
vn 0.0 -0.556269 0.831002

# Ball, 80 grouped triangles

usemtl Solid
o Ball
g Ball

f 1/1/1 13/2/2 15/3/3
f 2/4/4 16/5/5 18/6/6
f 1/7/7 15/8/8 20/9/9
f 1/10/10 20/11/11 22/12/12
f 1/13/13 22/14/14 24/15/15
f 1/16/16 24/17/17 13/18/18
f 2/19/19 18/20/20 27/21/21
f 2/22/22 27/23/23 29/24/24
f 2/25/25 29/26/26 31/27/27
f 2/28/28 31/29/29 16/30/30
f 3/31/31 33/32/32 19/33/33
f 5/34/34 35/35/35 21/36/36
f 7/37/37 37/38/38 23/39/39
f 9/40/40 39/41/41 25/42/42
f 11/43/43 41/44/44 14/45/45
f 6/46/46 35/47/47 32/48/48
f 8/49/49 37/50/50 30/51/51
f 10/52/52 39/53/53 28/54/54
f 12/55/55 41/56/56 26/57/57
f 4/58/58 33/59/59 17/60/60
f 11/61/61 14/62/62 13/63/63
f 3/64/64 15/65/65 14/66/66
f 13/67/67 14/68/68 15/69/69
f 4/70/70 17/71/71 16/72/72
f 12/73/73 18/74/74 17/75/75
f 16/76/76 17/77/77 18/78/78
f 3/79/79 19/80/80 15/81/81
f 5/82/82 20/83/83 19/84/84
f 15/85/85 19/86/86 20/87/87
f 5/88/88 21/89/89 20/90/90
f 7/91/91 22/92/92 21/93/93
f 20/94/94 21/95/95 22/96/96
f 7/97/97 23/98/98 22/99/99
f 9/100/100 24/101/101 23/102/102
f 22/103/103 23/104/104 24/105/105
f 9/106/106 25/107/107 24/108/108
f 11/109/109 13/110/110 25/111/111
f 24/112/112 25/113/113 13/114/114
f 12/115/115 26/116/116 18/117/117
f 10/118/118 27/119/119 26/120/120
f 18/121/121 26/122/122 27/123/123
f 10/124/124 28/125/125 27/126/126
f 8/127/127 29/128/128 28/129/129
f 27/130/130 28/131/131 29/132/132
f 8/133/133 30/134/134 29/135/135
f 6/136/136 31/137/137 30/138/138
f 29/139/139 30/140/140 31/141/141
f 6/142/142 32/143/143 31/144/144
f 4/145/145 16/146/146 32/147/147
f 31/148/148 32/149/149 16/150/150
f 4/151/151 34/152/152 33/153/153
f 5/154/154 19/155/155 34/156/156
f 33/157/157 34/158/158 19/159/159
f 6/160/160 36/161/161 35/162/162
f 7/163/163 21/164/164 36/165/165
f 35/166/166 36/167/167 21/168/168
f 8/169/169 38/170/170 37/171/171
f 9/172/172 23/173/173 38/174/174
f 37/175/175 38/176/176 23/177/177
f 10/178/178 40/179/179 39/180/180
f 11/181/181 25/182/182 40/183/183
f 39/184/184 40/185/185 25/186/186
f 12/187/187 42/188/188 41/189/189
f 3/190/190 14/191/191 42/192/192
f 41/193/193 42/194/194 14/195/195
f 5/196/196 34/197/197 35/198/198
f 4/199/199 32/200/200 34/201/201
f 35/202/202 34/203/203 32/204/204
f 7/205/205 36/206/206 37/207/207
f 6/208/208 30/209/209 36/210/210
f 37/211/211 36/212/212 30/213/213
f 9/214/214 38/215/215 39/216/216
f 8/217/217 28/218/218 38/219/219
f 39/220/220 38/221/221 28/222/222
f 11/223/223 40/224/224 41/225/225
f 10/226/226 26/227/227 40/228/228
f 41/229/229 40/230/230 26/231/231
f 3/232/232 42/233/233 33/234/234
f 12/235/235 17/236/236 42/237/237
f 33/238/238 42/239/239 17/240/240
